<svg width="15" height="16" viewBox="0 0 15 16" fill="none" xmlns="http://www.w3.org/2000/svg">
<path d="M7.5 7.10559C7.0425 7.10559 6.675 7.47815 6.675 7.94195C6.675 8.40575 7.0425 8.77831 7.5 8.77831C7.9575 8.77831 8.325 8.40575 8.325 7.94195C8.325 7.47815 7.9575 7.10559 7.5 7.10559ZM7.5 0.338654C3.36 0.338654 0 3.74493 0 7.94195C0 12.139 3.36 15.5452 7.5 15.5452C11.64 15.5452 15 12.139 15 7.94195C15 3.74493 11.64 0.338654 7.5 0.338654ZM9.1425 9.60707L3 12.5039L5.8575 6.27683L12 3.37997L9.1425 9.60707Z" fill="#404149"/>
</svg>
