<svg width="10" height="13" viewBox="0 0 10 13" fill="none" xmlns="http://www.w3.org/2000/svg">
<path d="M2.01111 5.79816C2.81111 7.70934 4.1 9.26935 5.67222 10.2486L6.89444 8.76286C7.04444 8.58052 7.26667 8.51974 7.46111 8.60078C8.08333 8.85065 8.75556 8.98572 9.44444 8.98572C9.75 8.98572 10 9.28961 10 9.66105V12.0179C10 12.3894 9.75 12.6933 9.44444 12.6933C4.22778 12.6933 0 7.55402 0 1.21268C0 0.841251 0.25 0.537354 0.555556 0.537354H2.5C2.80556 0.537354 3.05556 0.841251 3.05556 1.21268C3.05556 2.05684 3.16667 2.86724 3.37222 3.62361C3.43333 3.85997 3.38889 4.12335 3.23333 4.31244L2.01111 5.79816Z" fill="#404149"/>
</svg>
