<svg width="15" height="16" viewBox="0 0 15 16" fill="none" xmlns="http://www.w3.org/2000/svg">
<path d="M7.5 0.36911C3.35787 0.36911 0 3.77322 0 7.97241C0 12.1716 3.35787 15.5757 7.5 15.5757C11.6421 15.5757 15 12.1716 15 7.97241C14.9947 3.77547 11.6399 0.374492 7.5 0.36911ZM7.82175 14.907V13.5697C7.82175 13.3896 7.67769 13.2435 7.5 13.2435C7.32231 13.2435 7.17825 13.3896 7.17825 13.5697V14.907C3.65022 14.7363 0.828025 11.8752 0.659588 8.29859H1.97876C2.15645 8.29859 2.30051 8.15254 2.30051 7.97241C2.30051 7.79227 2.15645 7.64622 1.97876 7.64622H0.659588C0.828025 4.0696 3.65022 1.20854 7.17825 1.03778V2.37513C7.17825 2.55526 7.32231 2.70131 7.5 2.70131C7.67769 2.70131 7.82175 2.55526 7.82175 2.37513V1.03778C11.3498 1.20854 14.172 4.0696 14.3404 7.64622H13.0212C12.8435 7.64622 12.6995 7.79227 12.6995 7.97241C12.6995 8.15254 12.8435 8.29859 13.0212 8.29859H13.0245H14.3436C14.1751 11.8764 11.351 14.7379 7.82175 14.907Z" fill="#404149"/>
<path d="M11.6445 11.0059L8.57175 7.83867V4.5475C8.57175 4.36736 8.42769 4.22131 8.25 4.22131C8.07232 4.22131 7.92825 4.36736 7.92825 4.5475V7.97241C7.92862 8.05799 7.96212 8.13998 8.02156 8.20073L11.1844 11.4626C11.3088 11.5914 11.5126 11.5936 11.6396 11.4674C11.7667 11.3413 11.7689 11.1347 11.6445 11.0059Z" fill="#404149"/>
</svg>
